<?xml version="1.0" encoding="UTF-8" standalone="no"?>
<svg
   version="1.1"
   width="1024pt"
   height="1024pt"
   style="shape-rendering:geometricPrecision; text-rendering:geometricPrecision; image-rendering:optimizeQuality; fill-rule:evenodd; clip-rule:evenodd"
   id="svg74"
   sodipodi:docname="logo vectorizado contorno.svg"
   inkscape:version="1.3.2 (091e20e, 2023-11-25, custom)"
   xmlns:inkscape="http://www.inkscape.org/namespaces/inkscape"
   xmlns:sodipodi="http://sodipodi.sourceforge.net/DTD/sodipodi-0.dtd"
   xmlns="http://www.w3.org/2000/svg"
   xmlns:svg="http://www.w3.org/2000/svg">
  <sodipodi:namedview
     id="namedview74"
     pagecolor="#ffffff"
     bordercolor="#000000"
     borderopacity="0.25"
     inkscape:showpageshadow="2"
     inkscape:pageopacity="0.0"
     inkscape:pagecheckerboard="0"
     inkscape:deskcolor="#d1d1d1"
     inkscape:zoom="0.75878906"
     inkscape:cx="820.3861"
     inkscape:cy="312.99871"
     inkscape:window-width="1920"
     inkscape:window-height="991"
     inkscape:window-x="-9"
     inkscape:window-y="-9"
     inkscape:window-maximized="1"
     inkscape:current-layer="svg74"
     inkscape:document-units="pt" />
  <defs
     id="defs74" />
  <g
     id="g1">
    <g
       id="g83"
       transform="matrix(2.2677325,0,0,2.2991435,-478.41237,-494.49481)">
      <g
         id="g82">
        <g
           id="g81">
          <g
             id="g80">
            <g
               id="g79"
               transform="translate(11.260178,-8.7163622)">
              <g
                 id="g78">
                <g
                   id="g77">
                  <g
                     id="g76">
                    <g
                       id="g75">
                      <g
                         id="g74">
                        <g
                           id="g2">
                          <path
                             style="opacity:1"
                             fill="#f8fafa"
                             d="m 799.5,495.5 c 0,15.333 0,30.667 0,46 -5.333,0 -10.667,0 -16,0 0,-2 0,-4 0,-6 C 784.956,425.562 739.622,341.062 647.5,282 569.614,237.913 488.114,230.08 403,258.5 c -72.387,27.717 -125.72,76.384 -160,146 -18.496,40.632 -26.996,83.299 -25.5,128 -5.272,0.9 -10.605,1.233 -16,1 0,-9.333 0,-18.667 0,-28 3.253,-67.296 26.753,-126.296 70.5,-177 77.085,-84.143 172.252,-116.976 285.5,-98.5 86.689,18.07 153.855,64.236 201.5,138.5 23.221,39.214 36.721,81.547 40.5,127 z"
                             id="path2" />
                        </g>
                        <g
                           id="g4">
                          <path
                             style="opacity:1"
                             fill="#e0e2e4"
                             d="m 201.5,505.5 c 0,9.333 0,18.667 0,28 5.395,0.233 10.728,-0.1 16,-1 2.262,39.817 12.429,77.484 30.5,113 5.689,10.496 11.522,20.829 17.5,31 -1.015,0.96 -1.015,2.127 0,3.5 1.703,1.37 3.036,3.036 4,5 -2.514,4.719 -0.847,7.219 5,7.5 0.455,1.867 1.122,3.7 2,5.5 -0.333,0.833 -0.667,1.667 -1,2.5 -2.743,1.832 -5.743,2.832 -9,3 -0.541,-3.152 0.459,-5.652 3,-7.5 -2.015,-0.424 -3.849,-1.258 -5.5,-2.5 -0.772,0.145 -1.439,0.478 -2,1 -3.033,-2.536 -6.2,-4.869 -9.5,-7 -3.247,-4.159 -6.247,-8.492 -9,-13 -14.827,-24.808 -26.16,-51.141 -34,-79 -7.396,-29.725 -10.062,-59.725 -8,-90 z"
                             id="path4" />
                        </g>
                        <g
                           id="g5">
                          <path
                             style="opacity:1"
                             fill="#dfe1e2"
                             d="m 799.5,495.5 c 2.685,31.498 0.685,62.831 -6,94 -6.756,25.203 -16.089,49.536 -28,73 -9.697,18.066 -21.364,34.733 -35,50 -3.713,0.27 -6.546,1.936 -8.5,5 -0.333,-0.667 -0.667,-1.333 -1,-2 0.046,1.813 -0.12,3.479 -0.5,5 -0.714,-5.018 -1.381,-10.018 -2,-15 0.541,-2.035 1.208,-4.035 2,-6 1,-1.333 2,-1.333 3,0 3.323,-1.438 3.656,-3.271 1,-5.5 1.537,-1.11 2.203,-2.61 2,-4.5 34.157,-45.661 53.157,-96.995 57,-154 0,2 0,4 0,6 5.333,0 10.667,0 16,0 0,-15.333 0,-30.667 0,-46 z"
                             id="path5" />
                        </g>
                        <g
                           id="g7">
                          <path
                             style="opacity:1"
                             fill="#091420"
                             d="m 783.5,535.5 c -3.843,57.005 -22.843,108.339 -57,154 -64.932,77.615 -148.265,114.115 -250,109.5 -88.369,-10.494 -158.702,-51.328 -211,-122.5 -5.978,-10.171 -11.811,-20.504 -17.5,-31 -18.071,-35.516 -28.238,-73.183 -30.5,-113 -1.496,-44.701 7.004,-87.368 25.5,-128 34.28,-69.616 87.613,-118.283 160,-146 85.114,-28.42 166.614,-20.587 244.5,23.5 92.122,59.062 137.456,143.562 136,253.5 z"
                             id="path7" />
                        </g>
                        <g
                           id="g8">
                          <path
                             style="opacity:1"
                             fill="#172838"
                             d="m 719.5,650.5 c 0,1.667 0,3.333 0,5 1.373,-0.157 2.707,0.01 4,0.5 -1.638,2.133 -2.471,4.633 -2.5,7.5 -0.333,-1.333 -0.667,-2.667 -1,-4 -0.722,2.761 -0.555,5.427 0.5,8 -2.069,4.47 -4.402,8.804 -7,13 -15.245,16.747 -31.578,32.247 -49,46.5 -12.69,8.036 -25.357,16.036 -38,24 -93.881,47.136 -185.214,42.97 -274,-12.5 -0.886,-0.825 -1.219,-1.825 -1,-3 -8.773,-2.911 -16.106,-8.078 -22,-15.5 -9.523,-5.86 -18.023,-13.027 -25.5,-21.5 -0.483,-0.948 -0.649,-1.948 -0.5,-3 0,-4 0,-8 0,-12 -4.253,0.38 -4.92,-1.287 -2,-5 1.137,1.289 2.47,2.289 4,3 3.285,4.296 6.619,8.629 10,13 31.242,29.813 67.242,51.98 108,66.5 67.208,19.762 131.874,13.762 194,-18 8.658,-4.662 17.324,-9.329 26,-14 2.246,-1.257 3.579,-3.09 4,-5.5 3.407,-1.216 6.74,-2.716 10,-4.5 6.995,-7.327 14.328,-14.327 22,-21 3.186,-0.258 5.186,-1.925 6,-5 1.4,-1.438 3.067,-2.271 5,-2.5 2.148,-5.326 5.648,-9.659 10.5,-13 6.42,-8.904 12.587,-17.904 18.5,-27 z"
                             id="path8" />
                        </g>
                        <g
                           id="g9">
                          <path
                             style="opacity:1"
                             fill="#233b4e"
                             d="m 279.5,647.5 c 5.207,6.045 9.707,12.712 13.5,20 3.049,3.543 5.882,7.209 8.5,11 -2.92,3.713 -2.253,5.38 2,5 0,4 0,8 0,12 -2.894,-1.382 -5.394,-3.382 -7.5,-6 -5.333,-6.667 -10.667,-13.333 -16,-20 -3.565,-7.389 -7.732,-14.389 -12.5,-21 0.996,0.086 1.829,-0.248 2.5,-1 0.689,0.857 1.522,1.523 2.5,2 2.01,-1.671 4.343,-2.338 7,-2 z"
                             id="path9" />
                        </g>
                        <g
                           id="g10">
                          <path
                             style="opacity:1"
                             fill="#203647"
                             d="m 751.5,607.5 c 0.162,2.027 -0.005,4.027 -0.5,6 -5.205,11.432 -10.705,22.766 -16.5,34 -4.131,7.113 -8.798,13.78 -14,20 -1.055,-2.573 -1.222,-5.239 -0.5,-8 0.333,1.333 0.667,2.667 1,4 0.029,-2.867 0.862,-5.367 2.5,-7.5 -1.293,-0.49 -2.627,-0.657 -4,-0.5 0,-1.667 0,-3.333 0,-5 5.462,-9.188 10.462,-18.688 15,-28.5 4.277,-11.029 8.61,-21.863 13,-32.5 0.722,0.418 1.222,1.084 1.5,2 0.333,-1 0.667,-2 1,-3 2.409,5.544 1.576,10.544 -2.5,15 1.885,0.697 2.218,1.697 1,3 0.825,0.886 1.825,1.219 3,1 z"
                             id="path10" />
                        </g>
                        <g
                           id="g11">
                          <path
                             style="opacity:1"
                             fill="#334d64"
                             d="m 255.5,594.5 c 7.156,17.984 15.156,35.65 24,53 -2.657,-0.338 -4.99,0.329 -7,2 -0.978,-0.477 -1.811,-1.143 -2.5,-2 -0.671,0.752 -1.504,1.086 -2.5,1 -7.058,-13.289 -13.058,-26.955 -18,-41 1.322,0.17 2.489,-0.163 3.5,-1 0.798,-4.035 1.631,-8.035 2.5,-12 z"
                             id="path11" />
                        </g>
                        <g
                           id="g12">
                          <path
                             style="opacity:1"
                             fill="#314a60"
                             d="m 767.5,531.5 c -0.371,26.523 -5.704,51.856 -16,76 -1.175,0.219 -2.175,-0.114 -3,-1 1.218,-1.303 0.885,-2.303 -1,-3 4.076,-4.456 4.909,-9.456 2.5,-15 -0.333,1 -0.667,2 -1,3 -0.278,-0.916 -0.778,-1.582 -1.5,-2 4.318,-17.917 7.318,-35.917 9,-54 -0.157,1.373 0.01,2.707 0.5,4 0.333,-3 0.667,-6 1,-9 0.333,0.667 0.667,1.333 1,2 2.719,-0.944 5.552,-1.277 8.5,-1 z"
                             id="path12" />
                        </g>
                        <g
                           id="g13">
                          <path
                             style="opacity:1"
                             fill="#071421"
                             d="m 423.5,399.5 c 13.333,0 26.667,0 40,0 0,5.333 0,10.667 0,16 7.341,-0.166 14.674,0 22,0.5 -1.876,1.017 -3.876,1.851 -6,2.5 0.833,0.333 1.667,0.667 2.5,1 4.64,-1.207 9.14,-2.54 13.5,-4 0,2.333 0,4.667 0,7 -6.634,0.177 -6.634,0.677 0,1.5 7.401,0.24 14.734,0.407 22,0.5 0.956,1.365 1.622,2.865 2,4.5 -1.749,2.086 -3.083,4.419 -4,7 1.117,1.892 2.784,2.725 5,2.5 -0.149,1.052 0.017,2.052 0.5,3 3.818,-3.663 6.985,-7.829 9.5,-12.5 2.395,-0.681 4.728,-1.515 7,-2.5 -0.209,-0.586 -0.543,-1.086 -1,-1.5 1.667,-0.667 3.333,-0.667 5,0 -1.256,0.417 -1.923,1.25 -2,2.5 -22.367,14.267 -28.867,33.934 -19.5,59 1.012,2.702 2.512,5.035 4.5,7 10.028,12.186 23.028,17.686 39,16.5 -10.716,15.271 -21.049,30.771 -31,46.5 -0.543,0.06 -0.876,0.393 -1,1 10.493,1.323 20.826,1.323 31,0 12.637,-18.824 25.137,-37.824 37.5,-57 1.122,-1.907 1.955,-3.907 2.5,-6 2.887,-4.502 4.72,-9.502 5.5,-15 1.206,-10.217 0.372,-20.217 -2.5,-30 -0.131,-0.876 0.202,-1.543 1,-2 0.588,2.411 1.755,4.411 3.5,6 0.255,8.7 0.755,17.367 1.5,26 1,0 2,0 3,0 0,1.333 0,2.667 0,4 -2.449,20.209 2.051,38.876 13.5,56 22.988,22.616 48.488,25.783 76.5,9.5 4.195,-3.03 7.861,-6.53 11,-10.5 1.332,1.33 2.165,2.997 2.5,5 0.333,-0.333 0.667,-0.667 1,-1 1.242,5.825 0.408,11.159 -2.5,16 -1.545,0.952 -3.212,1.285 -5,1 0,5.333 0,10.667 0,16 -8,0 -16,0 -24,0 0,5.333 0,10.667 0,16 -5.333,0 -10.667,0 -16,0 0,5.333 0,10.667 0,16 2.667,0 5.333,0 8,0 0.166,5.676 -10e-4,11.343 -0.5,17 -2.401,-1.102 -4.901,-1.269 -7.5,-0.5 5.046,2.638 10.379,4.472 16,5.5 -0.88,1.444 -1.88,2.944 -3,4.5 2.686,2.512 3.686,5.679 3,9.5 -4.736,0.385 -5.069,1.719 -1,4 0.98,2.586 1.313,5.253 1,8 -1.333,0 -2.667,0 -4,0 0.271,1.88 -0.396,3.213 -2,4 0.575,-3.655 -0.425,-6.655 -3,-9 -4.385,-2.237 -9.052,-3.737 -14,-4.5 -0.522,-0.561 -0.855,-1.228 -1,-2 1.282,-1.911 3.115,-2.744 5.5,-2.5 2.501,0.084 4.834,0.75 7,2 3.019,-1.857 4.185,-4.357 3.5,-7.5 -8.734,-4.134 -16.567,-2.967 -23.5,3.5 -1.494,5.026 -0.327,9.192 3.5,12.5 4.863,1.195 9.529,2.695 14,4.5 0.011,3.322 -1.655,4.989 -5,5 -3.732,-0.976 -7.398,-1.809 -11,-2.5 -3.903,3.588 -3.569,6.255 1,8 6.586,2.274 12.92,1.774 19,-1.5 0,1.333 0,2.667 0,4 -1.984,-0.117 -3.65,0.55 -5,2 -0.995,5.292 -1.328,10.625 -1,16 1.333,0 2.667,0 4,0 0.05,2.09 -0.95,3.423 -3,4 -0.991,3.945 -1.324,7.945 -1,12 -2.667,0 -5.333,0 -8,0 0.478,-2.778 -0.522,-4.778 -3,-6 3.861,-1.098 3.861,-1.931 0,-2.5 1.771,-0.535 2.104,-1.369 1,-2.5 -1,0.667 -2,1.333 -3,2 -1.196,-0.346 -1.196,-0.846 0,-1.5 -0.594,-0.464 -1.261,-0.631 -2,-0.5 2.027,-2.694 4.361,-5.027 7,-7 -2.448,-0.973 -5.115,-1.306 -8,-1 0,-1 0,-2 0,-3 -2.948,0.277 -5.781,-0.056 -8.5,-1 -5.922,2.939 -8.422,0.939 -7.5,-6 5.333,0 10.667,0 16,0 0,-1 0,-2 0,-3 -5.181,-0.431 -10.514,-0.431 -16,0 0.369,-2.493 -0.297,-3.16 -2,-2 0,-11.667 0,-23.333 0,-35 -2.333,0 -4.667,0 -7,0 0.166,6.009 -10e-4,12.009 -0.5,18 -6.382,-6.885 -13.216,-13.218 -20.5,-19 -0.999,11.314 -1.332,22.647 -1,34 2.342,0.508 4.509,1.508 6.5,3 0.333,-0.333 0.667,-0.667 1,-1 0.499,-5.991 0.666,-11.991 0.5,-18 6.657,5.325 12.99,10.991 19,17 0,1 0,2 0,3 -2.027,0.162 -4.027,-0.005 -6,-0.5 -1.134,-3.387 -2.634,-6.554 -4.5,-9.5 -0.915,0.828 -1.581,1.828 -2,3 -0.333,-0.333 -0.667,-0.667 -1,-1 -0.304,1.941 -1.137,3.607 -2.5,5 0.333,0.667 0.667,1.333 1,2 -4.283,0.992 -8.616,1.326 -13,1 0,2 0,4 0,6 -5.333,0 -10.667,0 -16,0 0,-2 0,-4 0,-6 -4.72,0.275 -5.054,-0.559 -1,-2.5 0.14,-1.069 0.14,-2.236 0,-3.5 -0.978,0.477 -1.811,1.143 -2.5,2 -0.718,-0.951 -1.551,-1.117 -2.5,-0.5 1.196,0.654 1.196,1.154 0,1.5 -1.239,-0.442 -2.239,-1.109 -3,-2 3.8,-2.463 6.467,-5.796 8,-10 2.363,-13.989 -3.637,-21.656 -18,-23 -14.571,2.83 -19.571,11.163 -15,25 1.528,3.072 3.528,5.738 6,8 -0.235,0.597 -0.735,0.93 -1.5,1 -2.716,-2.19 -5.883,-3.523 -9.5,-4 -1.729,-2.351 -2.396,-5.018 -2,-8 -2.333,0 -4.667,0 -7,0 0.33,-6.7 -0.003,-13.366 -1,-20 -0.333,0.167 -0.667,0.333 -1,0.5 -0.651,3.918 -0.984,7.918 -1,12 0.206,6.481 1.039,12.315 2.5,17.5 -2.071,2.412 -4.404,4.412 -7,6 -1,-2.667 -2,-2.667 -3,0 -1.705,-1.263 -3.372,-1.597 -5,-1 -0.5,9.327 -0.666,18.661 -0.5,28 -2.667,0 -5.333,0 -8,0 0,1.667 0,3.333 0,5 -3.667,0 -7.333,0 -11,0 -0.661,4.827 0.339,9.161 3,13 -0.108,0.942 -0.441,1.775 -1,2.5 2.785,0.726 3.452,2.226 2,4.5 -4.725,-4.213 -10.058,-5.047 -16,-2.5 -4.042,4.137 -5.042,8.97 -3,14.5 -1,0 -2,0 -3,0 -0.767,-8.129 -1.767,-16.129 -3,-24 -2.667,0 -5.333,0 -8,0 0,1 0,2 0,3 -1,0 -2,0 -3,0 0.133,-3.425 -0.533,-3.758 -2,-1 -12.577,-3.465 -25.244,-7.298 -38,-11.5 -4.885,-2.609 -9.885,-4.943 -15,-7 -4.806,-2.907 -9.473,-6.074 -14,-9.5 -4.167,-0.333 -8.333,-0.667 -12.5,-1 -4.557,0.009 -8.724,0.675 -12.5,2 -1.542,0.801 -3.208,1.134 -5,1 0.149,-1.052 -0.017,-2.052 -0.5,-3 -0.576,5.032 -3.41,7.366 -8.5,7 -2.052,-0.116 -3.385,-1.116 -4,-3 -2.243,-0.974 -4.576,-1.308 -7,-1 -1.653,-0.16 -2.986,-0.826 -4,-2 -1.306,-0.967 -1.973,-2.301 -2,-4 -4.794,0.066 -9.461,0.566 -14,1.5 -1.821,-2.456 -2.488,-5.289 -2,-8.5 5.333,0.667 10.667,1.333 16,2 0.828,-5.007 -1.338,-7.341 -6.5,-7 -2.989,0.31 -5.989,0.644 -9,1 -0.464,-0.594 -0.631,-1.261 -0.5,-2 4.202,-0.768 7.869,-2.601 11,-5.5 -1.833,-1.833 -3.667,-3.667 -5.5,-5.5 -4.064,2.79 -8.564,3.623 -13.5,2.5 -3.466,-3.04 -4.8,-6.874 -4,-11.5 3.622,-7.204 9.122,-8.871 16.5,-5 5.573,-2.73 5.74,-5.563 0.5,-8.5 -8.156,-3.067 -15.156,-1.567 -21,4.5 -5.605,6.263 -6.438,13.263 -2.5,21 3.959,5.729 9.459,8.396 16.5,8 -2.003,2.482 -4.669,3.482 -8,3 -0.477,-3.573 -2.144,-4.406 -5,-2.5 -0.944,2.719 -1.277,5.552 -1,8.5 -5.523,-0.963 -8.023,1.371 -7.5,7 -1.667,-1.667 -3.333,-3.333 -5,-5 -0.278,0.916 -0.778,1.582 -1.5,2 -1.53,-0.711 -2.863,-1.711 -4,-3 -2.618,-3.791 -5.451,-7.457 -8.5,-11 -3.793,-7.288 -8.293,-13.955 -13.5,-20 -8.844,-17.35 -16.844,-35.016 -24,-53 -1.046,-6.414 -2.379,-12.747 -4,-19 -2.303,-15.508 -3.303,-31.508 -3,-48 2.333,0 4.667,0 7,0 0,-5.333 0,-10.667 0,-16 5.333,0 10.667,0 16,0 0,2.667 0,5.333 0,8 5.333,0 10.667,0 16,0 -0.313,2.747 0.02,5.414 1,8 0.829,-4.967 1.329,-9.967 1.5,-15 0.308,0.808 0.808,1.475 1.5,2 1.038,-3.595 1.704,-7.262 2,-11 -0.637,-24.363 -1.304,-48.696 -2,-73 0.909,-1.875 2.243,-3.208 4,-4 0,0.333 0,0.667 0,1 -0.167,29.002 0,58.002 0.5,87 2.305,19.453 12.472,32.953 30.5,40.5 24.267,8.683 45.6,4.183 64,-13.5 1.25,0.077 2.083,0.744 2.5,2 2.072,0.242 4.239,-0.091 6.5,-1 -0.285,1.788 0.048,3.455 1,5 2.346,-1.434 4.679,-2.767 7,-4 1.567,-0.023 2.9,0.477 4,1.5 -2.579,2.574 -3.579,5.408 -3,8.5 -0.667,1 -1.333,2 -2,3 -0.543,0.06 -0.876,0.393 -1,1 10.826,1.323 21.493,1.323 32,0 8.905,-14.807 18.072,-29.473 27.5,-44 8.608,14.896 17.441,29.563 26.5,44 9.841,1.323 19.841,1.323 30,0 -0.124,-0.607 -0.457,-0.94 -1,-1 -12.501,-21.675 -25.501,-43.008 -39,-64 -0.514,-1.866 -1.18,-3.7 -2,-5.5 11.239,-20.481 23.239,-40.481 36,-60 -10,-0.667 -20,-0.667 -30,0 -7.712,10.582 -14.545,21.749 -20.5,33.5 -5.058,-7.551 -9.891,-15.217 -14.5,-23 1.987,1.459 4.154,2.792 6.5,4 1.762,-0.444 1.595,-0.944 -0.5,-1.5 1.438,-0.219 2.771,-0.719 4,-1.5 2.117,-5.809 3.117,-11.809 3,-18 -5.333,0 -10.667,0 -16,0 0,-1.667 0,-3.333 0,-5 -2.667,0 -5.333,0 -8,0 0,-2.667 0,-5.333 0,-8 -2.667,0 -5.333,0 -8,0 0,2.667 0,5.333 0,8 -2.667,0 -5.333,0 -8,0 0,-5.333 0,-10.667 0,-16 z"
                             id="path13" />
                        </g>
                        <g
                           id="g14">
                          <path
                             style="opacity:1"
                             fill="#575f69"
                             d="m 477.5,666.5 c 0.543,0.06 0.876,0.393 1,1 -3.145,1.303 -6.145,1.303 -9,0 2.885,0.306 5.552,-0.027 8,-1 z"
                             id="path14" />
                        </g>
                        <g
                           id="g15">
                          <path
                             style="opacity:1"
                             fill="#dadddf"
                             d="m 319.5,639.5 c 0.177,2.481 -0.823,4.314 -3,5.5 0.133,2.734 0.133,5.401 0,8 1.263,2.386 3.097,4.219 5.5,5.5 0.179,-3.525 0.679,-6.859 1.5,-10 -0.8,4.626 0.534,8.46 4,11.5 4.936,1.123 9.436,0.29 13.5,-2.5 1.833,1.833 3.667,3.667 5.5,5.5 -3.131,2.899 -6.798,4.732 -11,5.5 -0.667,0 -1.333,0 -2,0 -7.041,0.396 -12.541,-2.271 -16.5,-8 -3.938,-7.737 -3.105,-14.737 2.5,-21 z"
                             id="path15" />
                        </g>
                        <g
                           id="g16">
                          <path
                             style="opacity:1"
                             fill="#dce0e2"
                             d="m 468.5,649.5 c 3.238,5.474 6.238,11.14 9,17 -2.448,0.973 -5.115,1.306 -8,1 -1.23,-1.797 -1.896,-3.797 -2,-6 -4.714,-0.327 -9.38,0.007 -14,1 -1.247,1.823 -1.914,3.823 -2,6 -2.667,0 -5.333,0 -8,0 0.932,-5.189 2.932,-9.856 6,-14 2.989,4.025 5.656,3.691 8,-1 0.774,0.647 1.774,0.98 3,1 1.53,-0.14 2.53,-0.807 3,-2 0.487,-0.973 0.987,-1.973 1.5,-3 1.53,1.726 2.53,3.726 3,6 0.495,-1.973 0.662,-3.973 0.5,-6 z"
                             id="path16" />
                        </g>
                        <g
                           id="g17">
                          <path
                             style="opacity:1"
                             fill="#aab5bb"
                             d="m 504.5,642.5 c 0,8.667 0,17.333 0,26 -2.885,0.306 -5.552,-0.027 -8,-1 2.333,0 4.667,0 7,0 -0.326,-8.517 0.007,-16.85 1,-25 z"
                             id="path17" />
                        </g>
                        <g
                           id="g18">
                          <path
                             style="opacity:1"
                             fill="#eff3f5"
                             d="m 637.5,669.5 c -0.667,-0.333 -1.333,-0.667 -2,-1 -6.01,-6.009 -12.343,-11.675 -19,-17 -1,4.568 -1.333,9.901 -1,16 -2.333,0 -4.667,0 -7,0 -0.332,-11.353 10e-4,-22.686 1,-34 7.284,5.782 14.118,12.115 20.5,19 0.499,-5.991 0.666,-11.991 0.5,-18 2.333,0 4.667,0 7,0 0,11.667 0,23.333 0,35 z"
                             id="path18" />
                        </g>
                        <g
                           id="g19">
                          <path
                             style="opacity:1"
                             fill="#f3f6f6"
                             d="m 590.5,656.5 c -2.961,0.036 -5.294,-0.964 -7,-3 -1.594,-11.253 -7.427,-14.253 -17.5,-9 -2.164,2.947 -2.998,6.281 -2.5,10 -1.011,1.872 -1.845,3.872 -2.5,6 -0.816,-1.323 -1.983,-1.989 -3.5,-2 -4.571,-13.837 0.429,-22.17 15,-25 14.363,1.344 20.363,9.011 18,23 z"
                             id="path19" />
                        </g>
                        <g
                           id="g20">
                          <path
                             style="opacity:1"
                             fill="#889195"
                             d="m 530.5,635.5 c 2.448,-0.973 5.115,-1.306 8,-1 0,11.333 0,22.667 0,34 -2.885,0.306 -5.552,-0.027 -8,-1 2.333,0 4.667,0 7,0 0,-10.667 0,-21.333 0,-32 -2.333,0 -4.667,0 -7,0 z"
                             id="path20" />
                        </g>
                        <g
                           id="g21">
                          <path
                             style="opacity:1"
                             fill="#ecf3f4"
                             d="m 530.5,635.5 c 2.333,0 4.667,0 7,0 0,10.667 0,21.333 0,32 -2.333,0 -4.667,0 -7,0 0,-10.667 0,-21.333 0,-32 z"
                             id="path21" />
                        </g>
                        <g
                           id="g22">
                          <path
                             style="opacity:1"
                             fill="#f0f3f5"
                             d="m 678.5,650.5 c -0.077,1.25 -0.744,2.083 -2,2.5 0.551,1.398 0.884,2.732 1,4 -1.319,0.195 -2.653,0.028 -4,-0.5 -4.471,-1.805 -9.137,-3.305 -14,-4.5 -3.827,-3.308 -4.994,-7.474 -3.5,-12.5 6.933,-6.467 14.766,-7.634 23.5,-3.5 0.685,3.143 -0.481,5.643 -3.5,7.5 -2.166,-1.25 -4.499,-1.916 -7,-2 -2.385,-0.244 -4.218,0.589 -5.5,2.5 0.145,0.772 0.478,1.439 1,2 4.948,0.763 9.615,2.263 14,4.5 z"
                             id="path22" />
                        </g>
                        <g
                           id="g23">
                          <path
                             style="opacity:1"
                             fill="#f1f4f6"
                             d="m 468.5,649.5 c 0.162,2.027 -0.005,4.027 -0.5,6 -0.47,-2.274 -1.47,-4.274 -3,-6 -0.513,1.027 -1.013,2.027 -1.5,3 -1.385,-1.074 -2.551,-2.407 -3.5,-4 -0.847,1.693 -1.68,3.36 -2.5,5 -2.344,4.691 -5.011,5.025 -8,1 3.488,-7.645 6.988,-15.312 10.5,-23 3.648,5.628 6.481,11.628 8.5,18 z"
                             id="path23" />
                        </g>
                        <g
                           id="g24">
                          <path
                             style="opacity:1"
                             fill="#111718"
                             d="m 463.5,652.5 c -0.47,1.193 -1.47,1.86 -3,2 -1.226,-0.02 -2.226,-0.353 -3,-1 0.82,-1.64 1.653,-3.307 2.5,-5 0.949,1.593 2.115,2.926 3.5,4 z"
                             id="path24" />
                        </g>
                        <g
                           id="g25">
                          <path
                             style="opacity:1"
                             fill="#f5f8f8"
                             d="m 323.5,648.5 c -0.821,3.141 -1.321,6.475 -1.5,10 -2.403,-1.281 -4.237,-3.114 -5.5,-5.5 0.133,-2.599 0.133,-5.266 0,-8 2.177,-1.186 3.177,-3.019 3,-5.5 5.844,-6.067 12.844,-7.567 21,-4.5 5.24,2.937 5.073,5.77 -0.5,8.5 -7.378,-3.871 -12.878,-2.204 -16.5,5 z"
                             id="path25" />
                        </g>
                        <g
                           id="g26">
                          <path
                             style="opacity:1"
                             fill="#f1f5f6"
                             d="m 504.5,642.5 c -0.993,8.15 -1.326,16.483 -1,25 -2.333,0 -4.667,0 -7,0 0,-8.333 0,-16.667 0,-25 -3.333,0 -6.667,0 -10,0 0,-2.667 0,-5.333 0,-8 9,0 18,0 27,0 0,2.667 0,5.333 0,8 -3,0 -6,0 -9,0 z"
                             id="path26" />
                        </g>
                        <g
                           id="g27">
                          <path
                             style="opacity:1"
                             fill="#f0f3f5"
                             d="m 406.5,634.5 c 7.333,0 14.667,0 22,0 0,2.667 0,5.333 0,8 -4.667,0 -9.333,0 -14,0 0,1.333 0,2.667 0,4 3.667,0 7.333,0 11,0 0,2.333 0,4.667 0,7 -3.667,0 -7.333,0 -11,0 0,2.333 0,4.667 0,7 4.667,0 9.333,0 14,0 0,2.333 0,4.667 0,7 -7.333,0 -14.667,0 -22,0 0,-11 0,-22 0,-33 z"
                             id="path27" />
                        </g>
                        <g
                           id="g28">
                          <path
                             style="opacity:1"
                             fill="#eff2f2"
                             d="m 362.5,634.5 c 7.552,-0.627 14.885,0.206 22,2.5 3.703,3.396 4.869,7.563 3.5,12.5 -1.337,2.502 -3.171,4.502 -5.5,6 2.543,3.921 5.21,7.754 8,11.5 -3.382,0.824 -6.716,0.657 -10,-0.5 -1.833,-3 -3.667,-6 -5.5,-9 -1.584,-1.361 -3.418,-2.028 -5.5,-2 0,4 0,8 0,12 -2.333,0 -4.667,0 -7,0 0,-11 0,-22 0,-33 z"
                             id="path28" />
                        </g>
                        <g
                           id="g29">
                          <path
                             style="opacity:1"
                             fill="#0a1218"
                             d="m 378.5,642.5 c 2.761,2.487 2.427,4.487 -1,6 -2.333,0 -4.667,0 -7,0 0,-2 0,-4 0,-6 2.667,0 5.333,0 8,0 z"
                             id="path29" />
                        </g>
                        <g
                           id="g30">
                          <path
                             style="opacity:1"
                             fill="#868d91"
                             d="m 378.5,642.5 c -2.667,0 -5.333,0 -8,0 0,2 0,4 0,6 2.333,0 4.667,0 7,0 -2.448,0.973 -5.115,1.306 -8,1 0,-2.667 0,-5.333 0,-8 3.213,-0.31 6.213,0.023 9,1 z"
                             id="path30" />
                        </g>
                        <g
                           id="g31">
                          <path
                             style="opacity:1"
                             fill="#547187"
                             d="m 521.5,592.5 c -3.125,0.6 -3.458,1.767 -1,3.5 42.665,0.5 85.332,0.667 128,0.5 0.149,1.052 -0.017,2.052 -0.5,3 -1.183,-1.231 -2.349,-1.231 -3.5,0 0.876,0.751 1.876,1.251 3,1.5 -98.666,0.5 -197.333,0.667 -296,0.5 0,-3 0,-6 0,-9 56.667,0 113.333,0 170,0 z"
                             id="path31" />
                        </g>
                        <g
                           id="g32">
                          <path
                             style="opacity:1"
                             fill="#597284"
                             d="m 521.5,592.5 c 43,0 86,0 129,0 0,3.333 0,6.667 0,10 -99.667,0 -199.333,0 -299,0 0,-0.333 0,-0.667 0,-1 98.667,0.167 197.334,0 296,-0.5 -1.124,-0.249 -2.124,-0.749 -3,-1.5 1.151,-1.231 2.317,-1.231 3.5,0 0.483,-0.948 0.649,-1.948 0.5,-3 -42.668,0.167 -85.335,0 -128,-0.5 -2.458,-1.733 -2.125,-2.9 1,-3.5 z"
                             id="path32" />
                        </g>
                        <g
                           id="g33">
                          <path
                             style="opacity:1"
                             fill="#3e5769"
                             d="m 650.5,592.5 c -43,0 -86,0 -129,0 -56.667,0 -113.333,0 -170,0 0,3 0,6 0,9 0,0.333 0,0.667 0,1 -0.982,-3.462 -1.315,-7.129 -1,-11 100.168,-0.333 200.168,10e-4 300,1 z"
                             id="path33" />
                        </g>
                        <g
                           id="g34">
                          <path
                             style="opacity:1"
                             fill="#061422"
                             d="m 248.5,431.5 c -16.508,47.131 -19.508,95.131 -9,144 -2,0 -4,0 -6,0 -0.157,-1.373 0.01,-2.707 0.5,-4 0.556,2.095 1.056,2.262 1.5,0.5 -2.189,-9.434 -2.856,-18.934 -2,-28.5 -1,0 -2,0 -3,0 1.032,-10.677 1.032,-21.344 0,-32 -3.333,0 -6.667,0 -10,0 0.189,-5.991 0.189,-11.824 0,-17.5 0.414,-5.986 1.414,-11.819 3,-17.5 1,0 2,0 3,0 -1.037,-10.04 0.629,-19.54 5,-28.5 -2.297,-1.58 -2.631,-3.58 -1,-6 1.402,-1.88 3.069,-3.547 5,-5 1.138,-4.136 2.138,-8.302 3,-12.5 0.667,-0.333 1.333,-0.667 2,-1 0.98,2.586 1.313,5.253 1,8 2.333,0 4.667,0 7,0 z"
                             id="path34" />
                        </g>
                        <g
                           id="g35">
                          <path
                             style="opacity:1"
                             fill="#4a6479"
                             d="m 413.5,272.5 c -0.763,0.768 -1.763,1.268 -3,1.5 1,0.333 2,0.667 3,1 -3.69,0.94 -7.357,1.607 -11,2 2.474,0.113 4.474,1.113 6,3 -2.383,0.065 -3.05,0.898 -2,2.5 -4.255,2.365 -3.921,3.365 1,3 -79.207,32.724 -131.04,90.39 -155.5,173 -8.598,36.123 -9.598,72.456 -3,109 0.782,2.81 1.616,5.477 2.5,8 1.621,6.253 2.954,12.586 4,19 -0.869,3.965 -1.702,7.965 -2.5,12 -1.011,0.837 -2.178,1.17 -3.5,1 -1.768,-3.106 -3.268,-6.439 -4.5,-10 -1.737,-7.374 -3.571,-14.708 -5.5,-22 -10.508,-48.869 -7.508,-96.869 9,-144 21.958,-57.636 59.291,-102.636 112,-135 9.501,-5.447 19.168,-10.614 29,-15.5 7.679,-3.726 15.679,-6.56 24,-8.5 z"
                             id="path35" />
                        </g>
                        <g
                           id="g36">
                          <path
                             style="opacity:1"
                             fill="#061421"
                             d="m 613.5,293.5 c 71.082,37.285 116.916,94.952 137.5,173 4.882,22.743 6.716,45.743 5.5,69 -1.682,18.083 -4.682,36.083 -9,54 -4.39,10.637 -8.723,21.471 -13,32.5 -4.538,9.812 -9.538,19.312 -15,28.5 -5.913,9.096 -12.08,18.096 -18.5,27 -4.852,3.341 -8.352,7.674 -10.5,13 -1.933,0.229 -3.6,1.062 -5,2.5 -0.814,3.075 -2.814,4.742 -6,5 -7.672,6.673 -15.005,13.673 -22,21 -3.26,1.784 -6.593,3.284 -10,4.5 -0.421,2.41 -1.754,4.243 -4,5.5 -8.676,4.671 -17.342,9.338 -26,14 -62.126,31.762 -126.792,37.762 -194,18 -40.758,-14.52 -76.758,-36.687 -108,-66.5 -3.381,-4.371 -6.715,-8.704 -10,-13 0.722,-0.418 1.222,-1.084 1.5,-2 1.667,1.667 3.333,3.333 5,5 -0.523,-5.629 1.977,-7.963 7.5,-7 -0.277,-2.948 0.056,-5.781 1,-8.5 2.856,-1.906 4.523,-1.073 5,2.5 3.331,0.482 5.997,-0.518 8,-3 0.667,0 1.333,0 2,0 -0.131,0.739 0.036,1.406 0.5,2 3.011,-0.356 6.011,-0.69 9,-1 5.162,-0.341 7.328,1.993 6.5,7 -5.333,-0.667 -10.667,-1.333 -16,-2 -0.488,3.211 0.179,6.044 2,8.5 4.539,-0.934 9.206,-1.434 14,-1.5 0.027,1.699 0.694,3.033 2,4 -4.714,-0.327 -9.38,0.007 -14,1 32.747,31.54 71.414,51.707 116,60.5 6.296,1.012 12.629,1.512 19,1.5 0,-3.667 0,-7.333 0,-11 -40.082,-4.92 -76.416,-19.087 -109,-42.5 -3.006,-2.301 -5.672,-4.801 -8,-7.5 2.424,-0.308 4.757,0.026 7,1 0.615,1.884 1.948,2.884 4,3 5.09,0.366 7.924,-1.968 8.5,-7 0.483,0.948 0.649,1.948 0.5,3 1.792,0.134 3.458,-0.199 5,-1 27.056,20.482 57.723,32.816 92,37 0,-3.333 0,-6.667 0,-10 1.467,-2.758 2.133,-2.425 2,1 1,0 2,0 3,0 0,-1 0,-2 0,-3 2.667,0 5.333,0 8,0 1.233,7.871 2.233,15.871 3,24 1,0 2,0 3,0 8.404,7.553 14.904,6.219 19.5,-4 0.602,-2.721 0.435,-5.387 -0.5,-8 1.452,-2.274 0.785,-3.774 -2,-4.5 0.559,-0.725 0.892,-1.558 1,-2.5 -2.661,-3.839 -3.661,-8.173 -3,-13 3.667,0 7.333,0 11,0 0,-1.667 0,-3.333 0,-5 2.667,0 5.333,0 8,0 -0.166,-9.339 0,-18.673 0.5,-28 1.628,-0.597 3.295,-0.263 5,1 1,-2.667 2,-2.667 3,0 2.596,-1.588 4.929,-3.588 7,-6 -1.461,-5.185 -2.294,-11.019 -2.5,-17.5 0.016,-4.082 0.349,-8.082 1,-12 0.333,-0.167 0.667,-0.333 1,-0.5 0.997,6.634 1.33,13.3 1,20 2.333,0 4.667,0 7,0 -0.396,2.982 0.271,5.649 2,8 3.617,0.477 6.784,1.81 9.5,4 0.765,-0.07 1.265,-0.403 1.5,-1 6.333,2.667 12.667,2.667 19,0 0.761,0.891 1.761,1.558 3,2 1.196,-0.346 1.196,-0.846 0,-1.5 0.949,-0.617 1.782,-0.451 2.5,0.5 0.689,-0.857 1.522,-1.523 2.5,-2 0.14,1.264 0.14,2.431 0,3.5 -4.054,1.941 -3.72,2.775 1,2.5 0,2 0,4 0,6 5.333,0 10.667,0 16,0 0,-2 0,-4 0,-6 4.384,0.326 8.717,-0.008 13,-1 -0.333,-0.667 -0.667,-1.333 -1,-2 1.363,-1.393 2.196,-3.059 2.5,-5 0.333,0.333 0.667,0.667 1,1 0.419,-1.172 1.085,-2.172 2,-3 1.866,2.946 3.366,6.113 4.5,9.5 1.973,0.495 3.973,0.662 6,0.5 0,-1 0,-2 0,-3 0.667,0.333 1.333,0.667 2,1 1.703,-1.16 2.369,-0.493 2,2 5.486,-0.431 10.819,-0.431 16,0 0,1 0,2 0,3 -5.333,0 -10.667,0 -16,0 -0.922,6.939 1.578,8.939 7.5,6 2.719,0.944 5.552,1.277 8.5,1 0,1 0,2 0,3 2.885,-0.306 5.552,0.027 8,1 -6.342,-0.166 -12.675,0 -19,0.5 -27.811,21.771 -58.811,37.438 -93,47 -6.542,1.924 -13.209,3.09 -20,3.5 0,4 0,8 0,12 28.467,-3.409 55.134,-11.909 80,-25.5 15.75,-9.197 30.75,-19.364 45,-30.5 0.739,-0.131 1.406,0.036 2,0.5 -1.196,0.654 -1.196,1.154 0,1.5 1,-0.667 2,-1.333 3,-2 1.104,1.131 0.771,1.965 -1,2.5 3.861,0.569 3.861,1.402 0,2.5 2.478,1.222 3.478,3.222 3,6 2.667,0 5.333,0 8,0 -0.324,-4.055 0.009,-8.055 1,-12 2.05,-0.577 3.05,-1.91 3,-4 -1.333,0 -2.667,0 -4,0 -0.328,-5.375 0.005,-10.708 1,-16 1.35,-1.45 3.016,-2.117 5,-2 0,-1.333 0,-2.667 0,-4 1.816,-1.618 3.149,-3.618 4,-6 1.604,-0.787 2.271,-2.12 2,-4 1.333,0 2.667,0 4,0 0.313,-2.747 -0.02,-5.414 -1,-8 -4.069,-2.281 -3.736,-3.615 1,-4 0.686,-3.821 -0.314,-6.988 -3,-9.5 1.12,-1.556 2.12,-3.056 3,-4.5 -5.621,-1.028 -10.954,-2.862 -16,-5.5 2.599,-0.769 5.099,-0.602 7.5,0.5 0.499,-5.657 0.666,-11.324 0.5,-17 -2.667,0 -5.333,0 -8,0 0,-5.333 0,-10.667 0,-16 5.333,0 10.667,0 16,0 0,-5.333 0,-10.667 0,-16 8,0 16,0 24,0 0,-5.333 0,-10.667 0,-16 1.788,0.285 3.455,-0.048 5,-1 2.908,-4.841 3.742,-10.175 2.5,-16 -0.333,0.333 -0.667,0.667 -1,1 -0.335,-2.003 -1.168,-3.67 -2.5,-5 7.419,-10.419 11.586,-22.085 12.5,-35 0.823,-8.177 0.656,-16.177 -0.5,-24 -5.119,-38.622 -27.119,-57.122 -66,-55.5 -18.977,4.065 -32.477,14.898 -40.5,32.5 -3.258,7.367 -5.425,15.034 -6.5,23 -1,0 -2,0 -3,0 -0.745,-8.633 -1.245,-17.3 -1.5,-26 -1.745,-1.589 -2.912,-3.589 -3.5,-6 -0.798,0.457 -1.131,1.124 -1,2 -11.57,-20.606 -29.236,-29.106 -53,-25.5 -4.489,0.705 -8.822,1.872 -13,3.5 0.077,-1.25 0.744,-2.083 2,-2.5 -1.667,-0.667 -3.333,-0.667 -5,0 0.457,0.414 0.791,0.914 1,1.5 -2.272,0.985 -4.605,1.819 -7,2.5 -2.515,4.671 -5.682,8.837 -9.5,12.5 -0.483,-0.948 -0.649,-1.948 -0.5,-3 -2.216,0.225 -3.883,-0.608 -5,-2.5 0.917,-2.581 2.251,-4.914 4,-7 -0.378,-1.635 -1.044,-3.135 -2,-4.5 -7.266,-0.093 -14.599,-0.26 -22,-0.5 -6.634,-0.823 -6.634,-1.323 0,-1.5 0,-2.333 0,-4.667 0,-7 -4.36,1.46 -8.86,2.793 -13.5,4 -0.833,-0.333 -1.667,-0.667 -2.5,-1 2.124,-0.649 4.124,-1.483 6,-2.5 -7.326,-0.5 -14.659,-0.666 -22,-0.5 0,-5.333 0,-10.667 0,-16 58.684,0.333 117.351,-0.5 176,-2.5 -44.002,-0.346 -88.002,-0.846 -132,-1.5 -44.005,0.528 -88.005,1.194 -132,2 -7.952,-1.328 -15.952,-1.994 -24,-2 0,1.333 0,2.667 0,4 24,0 48,0 72,0 0,5.333 0,10.667 0,16 2.667,0 5.333,0 8,0 0,-2.667 0,-5.333 0,-8 2.667,0 5.333,0 8,0 0,2.667 0,5.333 0,8 2.667,0 5.333,0 8,0 0,1.667 0,3.333 0,5 5.333,0 10.667,0 16,0 0.117,6.191 -0.883,12.191 -3,18 -1.229,0.781 -2.562,1.281 -4,1.5 2.095,0.556 2.262,1.056 0.5,1.5 -2.346,-1.208 -4.513,-2.541 -6.5,-4 -1.951,-3.729 -4.284,-7.229 -7,-10.5 -9.327,-0.5 -18.661,-0.666 -28,-0.5 -0.982,0.641 -1.982,1.307 -3,2 -1.284,-1.085 -2.784,-1.752 -4.5,-2 -2.187,0.288 -4.354,0.622 -6.5,1 -9.152,-0.994 -18.485,-1.327 -28,-1 0,27.333 0,54.667 0,82 -1.678,14.703 -10.011,22.37 -25,23 -14.459,-1.129 -22.792,-8.796 -25,-23 0,-27.333 0,-54.667 0,-82 -9.333,0 -18.667,0 -28,0 -1.757,0.792 -3.091,2.125 -4,4 0.696,24.304 1.363,48.637 2,73 -0.296,3.738 -0.962,7.405 -2,11 -0.692,-0.525 -1.192,-1.192 -1.5,-2 -0.171,5.033 -0.671,10.033 -1.5,15 -0.98,-2.586 -1.313,-5.253 -1,-8 -5.333,0 -10.667,0 -16,0 0,-2.667 0,-5.333 0,-8 -5.333,0 -10.667,0 -16,0 0,5.333 0,10.667 0,16 -2.333,0 -4.667,0 -7,0 -0.303,16.492 0.697,32.492 3,48 -0.884,-2.523 -1.718,-5.19 -2.5,-8 -6.598,-36.544 -5.598,-72.877 3,-109 24.46,-82.61 76.293,-140.276 155.5,-173 69.795,-24.939 138.461,-22.273 206,8 z"
                             id="path36" />
                        </g>
                        <g
                           id="g37">
                          <path
                             style="opacity:1"
                             fill="#344a5e"
                             d="m 663.5,685.5 c -2.639,1.973 -4.973,4.306 -7,7 -14.25,11.136 -29.25,21.303 -45,30.5 -24.866,13.591 -51.533,22.091 -80,25.5 0,-4 0,-8 0,-12 6.791,-0.41 13.458,-1.576 20,-3.5 34.189,-9.562 65.189,-25.229 93,-47 6.325,-0.5 12.658,-0.666 19,-0.5 z"
                             id="path37" />
                        </g>
                        <g
                           id="g38">
                          <path
                             style="opacity:1"
                             fill="#384e63"
                             d="m 353.5,685.5 c 1.014,1.174 2.347,1.84 4,2 2.328,2.699 4.994,5.199 8,7.5 32.584,23.413 68.918,37.58 109,42.5 0,3.667 0,7.333 0,11 -6.371,0.012 -12.704,-0.488 -19,-1.5 -44.586,-8.793 -83.253,-28.96 -116,-60.5 4.62,-0.993 9.286,-1.327 14,-1 z"
                             id="path38" />
                        </g>
                        <g
                           id="g39">
                          <path
                             style="opacity:1"
                             fill="#1c2e3e"
                             d="m 591.5,685.5 c 7.032,-0.33 14.032,0.003 21,1 -23.279,19.676 -50.279,31.676 -81,36 0,-4.333 0,-8.667 0,-13 21.435,-4.728 41.435,-12.728 60,-24 z"
                             id="path39" />
                        </g>
                        <g
                           id="g40">
                          <path
                             style="opacity:1"
                             fill="#1d3144"
                             d="m 474.5,713.5 c 0,3.333 0,6.667 0,10 -34.277,-4.184 -64.944,-16.518 -92,-37 3.776,-1.325 7.943,-1.991 12.5,-2 4.167,0.333 8.333,0.667 12.5,1 4.527,3.426 9.194,6.593 14,9.5 5.115,2.057 10.115,4.391 15,7 12.756,4.202 25.423,8.035 38,11.5 z"
                             id="path40" />
                        </g>
                        <g
                           id="g41">
                          <path
                             style="opacity:1"
                             fill="#e0e4e3"
                             d="m 583.5,653.5 c 1.706,2.036 4.039,3.036 7,3 -1.533,4.204 -4.2,7.537 -8,10 -6.333,2.667 -12.667,2.667 -19,0 -2.472,-2.262 -4.472,-4.928 -6,-8 1.517,0.011 2.684,0.677 3.5,2 0.655,-2.128 1.489,-4.128 2.5,-6 3.47,5.58 8.47,7.413 15,5.5 2.326,-1.805 3.992,-3.972 5,-6.5 z"
                             id="path41" />
                        </g>
                        <g
                           id="g42">
                          <path
                             style="opacity:1"
                             fill="#4c565d"
                             d="m 616.5,651.5 c 0.166,6.009 -10e-4,12.009 -0.5,18 -0.333,0.333 -0.667,0.667 -1,1 -1.991,-1.492 -4.158,-2.492 -6.5,-3 2.333,0 4.667,0 7,0 -0.333,-6.099 0,-11.432 1,-16 z"
                             id="path42" />
                        </g>
                        <g
                           id="g43">
                          <path
                             style="opacity:1"
                             fill="#dce0e3"
                             d="m 678.5,650.5 c 2.575,2.345 3.575,5.345 3,9 -0.851,2.382 -2.184,4.382 -4,6 -6.08,3.274 -12.414,3.774 -19,1.5 -4.569,-1.745 -4.903,-4.412 -1,-8 3.602,0.691 7.268,1.524 11,2.5 3.345,-0.011 5.011,-1.678 5,-5 1.347,0.528 2.681,0.695 4,0.5 -0.116,-1.268 -0.449,-2.602 -1,-4 1.256,-0.417 1.923,-1.25 2,-2.5 z"
                             id="path43" />
                        </g>
                        <g
                           id="g44">
                          <path
                             style="opacity:1"
                             fill="#0c1320"
                             d="m 583.5,653.5 c -1.008,2.528 -2.674,4.695 -5,6.5 -6.53,1.913 -11.53,0.08 -15,-5.5 -0.498,-3.719 0.336,-7.053 2.5,-10 10.073,-5.253 15.906,-2.253 17.5,9 z"
                             id="path44" />
                        </g>
                        <g
                           id="g45">
                          <path
                             style="opacity:1"
                             fill="#9aa2ac"
                             d="m 532.5,556.5 c 9.819,0.994 19.819,1.327 30,1 -10.174,1.323 -20.507,1.323 -31,0 0.124,-0.607 0.457,-0.94 1,-1 z"
                             id="path45" />
                        </g>
                        <g
                           id="g46">
                          <path
                             style="opacity:1"
                             fill="#939ba4"
                             d="m 520.5,556.5 c 0.543,0.06 0.876,0.393 1,1 -10.159,1.323 -20.159,1.323 -30,0 9.848,0.327 19.514,-0.006 29,-1 z"
                             id="path46" />
                        </g>
                        <g
                           id="g47">
                          <path
                             style="opacity:1"
                             fill="#96a0aa"
                             d="m 406.5,556.5 c 10.153,0.994 20.486,1.328 31,1 -10.507,1.323 -21.174,1.323 -32,0 0.124,-0.607 0.457,-0.94 1,-1 z"
                             id="path47" />
                        </g>
                        <g
                           id="g48">
                          <path
                             style="opacity:1"
                             fill="#d4d6da"
                             d="m 727.5,479.5 c 1.156,7.823 1.323,15.823 0.5,24 -0.914,12.915 -5.081,24.581 -12.5,35 -3.139,3.97 -6.805,7.47 -11,10.5 -28.012,16.283 -53.512,13.116 -76.5,-9.5 -11.449,-17.124 -15.949,-35.791 -13.5,-56 0,3.333 0,6.667 0,10 9.333,0 18.667,0 28,0 0.577,30.447 15.244,41.28 44,32.5 5.745,-4.092 9.578,-9.592 11.5,-16.5 1.416,-4.912 2.249,-9.912 2.5,-15 9,0 18,0 27,0 0,-5 0,-10 0,-15 z"
                             id="path48" />
                        </g>
                        <g
                           id="g49">
                          <path
                             style="opacity:1"
                             fill="#dddee1"
                             d="m 447.5,491.5 c 0.684,1.685 2.017,2.685 4,3 10.128,-0.644 20.128,-1.311 30,-2 13.499,20.992 26.499,42.325 39,64 -9.486,0.994 -19.152,1.327 -29,1 -9.059,-14.437 -17.892,-29.104 -26.5,-44 -9.428,14.527 -18.595,29.193 -27.5,44 -10.514,0.328 -20.847,-0.006 -31,-1 0.667,-1 1.333,-2 2,-3 13.014,-20.703 26.014,-41.37 39,-62 z"
                             id="path49" />
                        </g>
                        <g
                           id="g50">
                          <path
                             style="opacity:1"
                             fill="#d9dbdc"
                             d="m 602.5,494.5 c -0.545,2.093 -1.378,4.093 -2.5,6 -12.363,19.176 -24.863,38.176 -37.5,57 -10.181,0.327 -20.181,-0.006 -30,-1 9.951,-15.729 20.284,-31.229 31,-46.5 -15.972,1.186 -28.972,-4.314 -39,-16.5 0.996,0.086 1.829,-0.248 2.5,-1 25.137,0.68 50.303,1.347 75.5,2 z"
                             id="path50" />
                        </g>
                        <g
                           id="g51">
                          <path
                             style="opacity:1"
                             fill="#d5d7da"
                             d="m 295.5,427.5 c 0.333,0 0.667,0 1,0 0,22 0,44 0,66 8.667,0 17.333,0 26,0 -0.321,5.195 0.013,10.195 1,15 2.208,14.204 10.541,21.871 25,23 14.989,-0.63 23.322,-8.297 25,-23 0.987,-4.805 1.321,-9.805 1,-15 9,0 18,0 27,0 0.826,12.22 -0.341,24.22 -3.5,36 -1.933,4.417 -4.433,8.417 -7.5,12 -18.4,17.683 -39.733,22.183 -64,13.5 -18.028,-7.547 -28.195,-21.047 -30.5,-40.5 -0.5,-28.998 -0.667,-57.998 -0.5,-87 z"
                             id="path51" />
                        </g>
                        <g
                           id="g52">
                          <path
                             style="opacity:1"
                             fill="#52575c"
                             d="m 401.5,427.5 c -9,0 -18,0 -27,0 0,22 0,44 0,66 0.321,5.195 -0.013,10.195 -1,15 0,-27.333 0,-54.667 0,-82 9.515,-0.327 18.848,0.006 28,1 z"
                             id="path52" />
                        </g>
                        <g
                           id="g53">
                          <path
                             style="opacity:1"
                             fill="#495056"
                             d="m 295.5,427.5 c 0,-0.333 0,-0.667 0,-1 9.333,0 18.667,0 28,0 0,27.333 0,54.667 0,82 -0.987,-4.805 -1.321,-9.805 -1,-15 0,-22 0,-44 0,-66 -8.667,0 -17.333,0 -26,0 -0.333,0 -0.667,0 -1,0 z"
                             id="path53" />
                        </g>
                        <g
                           id="g54">
                          <path
                             style="opacity:1"
                             fill="#091521"
                             d="m 700.5,494.5 c -0.251,5.088 -1.084,10.088 -2.5,15 -1.922,6.908 -5.755,12.408 -11.5,16.5 -28.756,8.78 -43.423,-2.053 -44,-32.5 -0.435,-11.265 2.399,-21.598 8.5,-31 9.326,-9.25 20.159,-11.416 32.5,-6.5 7.331,4.14 12.165,10.307 14.5,18.5 1.81,6.549 2.643,13.216 2.5,20 z"
                             id="path54" />
                        </g>
                        <g
                           id="g55">
                          <path
                             style="opacity:1"
                             fill="#0a1621"
                             d="m 415.5,426.5 c 10.548,20.763 21.882,41.096 34,61 -0.68,1.36 -1.347,2.693 -2,4 -12.986,20.63 -25.986,41.297 -39,62 -0.579,-3.092 0.421,-5.926 3,-8.5 -1.1,-1.023 -2.433,-1.523 -4,-1.5 -2.321,1.233 -4.654,2.566 -7,4 -0.952,-1.545 -1.285,-3.212 -1,-5 -2.261,0.909 -4.428,1.242 -6.5,1 -0.417,-1.256 -1.25,-1.923 -2.5,-2 3.067,-3.583 5.567,-7.583 7.5,-12 3.159,-11.78 4.326,-23.78 3.5,-36 0,-22 0,-44 0,-66 2.146,-0.378 4.313,-0.712 6.5,-1 1.716,0.248 3.216,0.915 4.5,2 1.018,-0.693 2.018,-1.359 3,-2 z"
                             id="path55" />
                        </g>
                        <g
                           id="g56">
                          <path
                             style="opacity:1"
                             fill="#f8f9fa"
                             d="m 415.5,426.5 c 9.339,-0.166 18.673,0 28,0.5 2.716,3.271 5.049,6.771 7,10.5 4.609,7.783 9.442,15.449 14.5,23 5.955,-11.751 12.788,-22.918 20.5,-33.5 10,-0.667 20,-0.667 30,0 -12.761,19.519 -24.761,39.519 -36,60 0.82,1.8 1.486,3.634 2,5.5 -9.872,0.689 -19.872,1.356 -30,2 -1.983,-0.315 -3.316,-1.315 -4,-3 0.653,-1.307 1.32,-2.64 2,-4 -12.118,-19.904 -23.452,-40.237 -34,-61 z"
                             id="path56" />
                        </g>
                        <g
                           id="g57">
                          <path
                             style="opacity:1"
                             fill="#fdfefe"
                             d="m 401.5,427.5 c 0,22 0,44 0,66 -9,0 -18,0 -27,0 0,-22 0,-44 0,-66 9,0 18,0 27,0 z"
                             id="path57" />
                        </g>
                        <g
                           id="g58">
                          <path
                             style="opacity:1"
                             fill="#fdfefe"
                             d="m 296.5,427.5 c 8.667,0 17.333,0 26,0 0,22 0,44 0,66 -8.667,0 -17.333,0 -26,0 0,-22 0,-44 0,-66 z"
                             id="path58" />
                        </g>
                        <g
                           id="g59">
                          <path
                             style="opacity:1"
                             fill="#fbfcfc"
                             d="m 727.5,479.5 c 0,5 0,10 0,15 -9,0 -18,0 -27,0 0.143,-6.784 -0.69,-13.451 -2.5,-20 -2.335,-8.193 -7.169,-14.36 -14.5,-18.5 -12.341,-4.916 -23.174,-2.75 -32.5,6.5 -6.101,9.402 -8.935,19.735 -8.5,31 -9.333,0 -18.667,0 -28,0 0,-3.333 0,-6.667 0,-10 0,-1.333 0,-2.667 0,-4 1.075,-7.966 3.242,-15.633 6.5,-23 8.023,-17.602 21.523,-28.435 40.5,-32.5 38.881,-1.622 60.881,16.878 66,55.5 z"
                             id="path59" />
                        </g>
                        <g
                           id="g60">
                          <path
                             style="opacity:1"
                             fill="#fbfbfb"
                             d="m 605.5,449.5 c 2.872,9.783 3.706,19.783 2.5,30 -0.78,5.498 -2.613,10.498 -5.5,15 -25.197,-0.653 -50.363,-1.32 -75.5,-2 -0.671,0.752 -1.504,1.086 -2.5,1 -1.988,-1.965 -3.488,-4.298 -4.5,-7 -9.367,-25.066 -2.867,-44.733 19.5,-59 4.178,-1.628 8.511,-2.795 13,-3.5 23.764,-3.606 41.43,4.894 53,25.5 z"
                             id="path60" />
                        </g>
                        <g
                           id="g61">
                          <path
                             style="opacity:1"
                             fill="#0a1521"
                             d="m 556.5,448.5 c 18.931,-0.567 26.431,8.433 22.5,27 -7.003,10.243 -16.17,12.743 -27.5,7.5 -8.783,-7.916 -10.283,-17.082 -4.5,-27.5 2.529,-3.385 5.696,-5.718 9.5,-7 z"
                             id="path61" />
                        </g>
                        <g
                           id="g62">
                          <path
                             style="opacity:1"
                             fill="#05151d"
                             d="m 463.5,399.5 c -13.333,0 -26.667,0 -40,0 -24,0 -48,0 -72,0 0,-1.333 0,-2.667 0,-4 8.048,0.006 16.048,0.672 24,2 43.995,-0.806 87.995,-1.472 132,-2 43.998,0.654 87.998,1.154 132,1.5 -58.649,2 -117.316,2.833 -176,2.5 z"
                             id="path62" />
                        </g>
                        <g
                           id="g63">
                          <path
                             style="opacity:1"
                             fill="#547085"
                             d="m 650.5,382.5 c 0,3.667 0,7.333 0,11 -99.835,0.333 -199.501,-10e-4 -299,-1 0,-3.333 0,-6.667 0,-10 99.667,0 199.333,0 299,0 z"
                             id="path63" />
                        </g>
                        <g
                           id="g64">
                          <path
                             style="opacity:1"
                             fill="#405568"
                             d="m 650.5,382.5 c -99.667,0 -199.333,0 -299,0 0,3.333 0,6.667 0,10 -0.982,-3.462 -1.315,-7.129 -1,-11 100.168,-0.333 200.168,10e-4 300,1 z"
                             id="path64" />
                        </g>
                        <g
                           id="g65">
                          <path
                             style="opacity:1"
                             fill="#58758d"
                             d="m 430.5,329.5 c 1.716,-0.129 3.383,-0.462 5,-1 66.134,-18.304 128.467,-9.637 187,26 -12.32,1.166 -24.653,1.333 -37,0.5 -46.755,-20.711 -94.755,-24.044 -144,-10 -8.25,2.729 -16.25,6.063 -24,10 -12.347,0.833 -24.68,0.666 -37,-0.5 15.667,-10.5 32.334,-18.834 50,-25 z"
                             id="path65" />
                        </g>
                        <g
                           id="g66">
                          <path
                             style="opacity:1"
                             fill="#f6f8f8"
                             d="m 584.5,319.5 c -56.955,-20.141 -113.955,-19.974 -171,0.5 -4.21,1.609 -8.21,3.442 -12,5.5 -16.512,6.589 -31.845,15.256 -46,26 -2.493,-2.08 -5.159,-3.914 -8,-5.5 29.121,-26.178 63.121,-42.844 102,-50 52.591,-9.383 103.591,-4.05 153,16 18.712,8.681 35.712,19.847 51,33.5 -1.84,2.835 -4.34,4.835 -7.5,6 -13.778,-10.41 -28.611,-19.243 -44.5,-26.5 -5.502,-2.422 -11.168,-4.255 -17,-5.5 z"
                             id="path66" />
                        </g>
                        <g
                           id="g67">
                          <path
                             style="opacity:1"
                             fill="#0c151d"
                             d="m 584.5,319.5 c -6.866,-2.078 -14.032,-3.412 -21.5,-4 -0.741,1.141 -1.575,1.141 -2.5,0 -0.929,1.189 -1.262,2.522 -1,4 -3.072,0.317 -6.072,-0.016 -9,-1 -4.501,-8.469 -11.834,-11.136 -22,-8 -0.886,-0.825 -1.219,-1.825 -1,-3 -6.316,-0.512 -12.65,-0.846 -19,-1 -4.848,0.059 -9.515,0.726 -14,2 -1,-0.667 -2,-1.333 -3,-2 -10.503,2.427 -21.169,3.593 -32,3.5 -2.949,1.334 -4.949,3.001 -6,5 1.532,0.7 2.532,1.866 3,3.5 -2.928,0.984 -5.928,1.317 -9,1 0,1 0,2 0,3 -3,1.147 -6,1.313 -9,0.5 -1.66,1.488 -2.66,3.321 -3,5.5 -1.617,0.538 -3.284,0.871 -5,1 0.888,-2.554 1.221,-5.221 1,-8 1.788,0.285 3.455,-0.048 5,-1 -4.956,-0.994 -9.956,-1.327 -15,-1 0.068,2.585 0.568,4.918 1.5,7 -2.025,2.193 -4.525,3.193 -7.5,3 0.49,-2.448 -0.343,-4.115 -2.5,-5 -0.667,0.667 -1.333,1.333 -2,2 -2.933,-1.091 -5.766,-0.757 -8.5,1 -0.798,-0.457 -1.131,-1.124 -1,-2 3.79,-2.058 7.79,-3.891 12,-5.5 57.045,-20.474 114.045,-20.641 171,-0.5 z"
                             id="path67" />
                        </g>
                        <g
                           id="g68">
                          <path
                             style="opacity:1"
                             fill="#476279"
                             d="m 607.5,280.5 c 48.149,21.342 87.316,53.675 117.5,97 30.338,46.664 44.504,97.998 42.5,154 -2.948,-0.277 -5.781,0.056 -8.5,1 -0.333,-0.667 -0.667,-1.333 -1,-2 -0.333,3 -0.667,6 -1,9 -0.49,-1.293 -0.657,-2.627 -0.5,-4 1.216,-23.257 -0.618,-46.257 -5.5,-69 -20.584,-78.048 -66.418,-135.715 -137.5,-173 1.106,-1.23 2.106,-2.396 3,-3.5 -1.376,-2.543 -2.543,-2.709 -3.5,-0.5 -1.401,-1.692 -3.234,-2.359 -5.5,-2 0.582,-2.498 0.582,-4.831 0,-7 z"
                             id="path68" />
                        </g>
                        <g
                           id="g69">
                          <path
                             style="opacity:1"
                             fill="#516b7f"
                             d="m 607.5,279.5 c 0,0.333 0,0.667 0,1 0.582,2.169 0.582,4.502 0,7 2.266,-0.359 4.099,0.308 5.5,2 0.957,-2.209 2.124,-2.043 3.5,0.5 -0.894,1.104 -1.894,2.27 -3,3.5 -67.539,-30.273 -136.205,-32.939 -206,-8 -4.921,0.365 -5.255,-0.635 -1,-3 -1.05,-1.602 -0.383,-2.435 2,-2.5 -1.526,-1.887 -3.526,-2.887 -6,-3 3.643,-0.393 7.31,-1.06 11,-2 -1,-0.333 -2,-0.667 -3,-1 1.237,-0.232 2.237,-0.732 3,-1.5 65.461,-21.969 130.128,-19.635 194,7 z"
                             id="path69" />
                        </g>
                        <g
                           id="g70">
                          <path
                             style="opacity:1"
                             fill="#071524"
                             d="m 607.5,279.5 c -63.872,-26.635 -128.539,-28.969 -194,-7 -8.321,1.94 -16.321,4.774 -24,8.5 -9.832,4.886 -19.499,10.053 -29,15.5 -1.381,-1.774 -1.048,-3.274 1,-4.5 -3.144,-0.286 -6.477,-0.786 -10,-1.5 0.354,-2.041 0.354,-3.874 0,-5.5 0.667,-0.667 1.333,-0.667 2,0 -0.076,3.001 1.091,3.167 3.5,0.5 0.333,0.333 0.667,0.667 1,1 2.248,-2.828 4.248,-5.828 6,-9 1.667,1.333 3.333,1.333 5,0 4.37,2.071 9.037,3.404 14,4 4.192,-0.865 7.192,-3.198 9,-7 2.914,1.087 5.414,0.42 7.5,-2 4.296,-0.828 8.629,-1.328 13,-1.5 -3.667,-2.167 -7.333,-4.333 -11,-6.5 0.209,-0.586 0.543,-1.086 1,-1.5 2,-0.333 4,-0.667 6,-1 -1,-0.333 -2,-0.667 -3,-1 3.123,-0.206 6.123,-0.873 9,-2 0.837,-1.011 1.17,-2.178 1,-3.5 4.267,-0.297 8.434,0.036 12.5,1 2.465,-1.646 5.299,-1.979 8.5,-1 3.467,-0.034 6.8,-0.7 10,-2 0.929,1.189 1.262,2.522 1,4 4.89,-0.902 10.223,-1.568 16,-2 0,-3 0,-6 0,-9 2.627,0.592 5.294,0.925 8,1 0,1 0,2 0,3 20.326,2.583 40.659,2.583 61,0 2.631,-0.179 4.965,0.487 7,2 2.837,-1.009 4.17,-3.009 4,-6 3.521,0.33 6.521,1.83 9,4.5 2.31,0.497 4.643,0.663 7,0.5 0,1.333 0,2.667 0,4 -5.344,-0.166 -10.677,0.001 -16,0.5 0.333,0.333 0.667,0.667 1,1 6.457,0.338 12.623,0.838 18.5,1.5 1.848,-3.835 4.015,-4.001 6.5,-0.5 3.076,0.346 6.076,1.012 9,2 1.333,2.333 2.667,4.667 4,7 2.728,-0.202 5.395,-0.036 8,0.5 0.929,1.189 1.262,2.522 1,4 2.357,-0.163 4.69,0.003 7,0.5 2.763,1.84 5.763,3.174 9,4 -0.671,0.986 -0.671,2.153 0,3.5 z"
                             id="path70" />
                        </g>
                        <g
                           id="g72">
                          <path
                             style="opacity:1"
                             fill="#d8dbdd"
                             d="m 265.5,676.5 c 52.298,71.172 122.631,112.006 211,122.5 101.735,4.615 185.068,-31.885 250,-109.5 0.203,1.89 -0.463,3.39 -2,4.5 2.656,2.229 2.323,4.062 -1,5.5 -1,-1.333 -2,-1.333 -3,0 -0.792,1.965 -1.459,3.965 -2,6 0.619,4.982 1.286,9.982 2,15 0.38,-1.521 0.546,-3.187 0.5,-5 0.333,0.667 0.667,1.333 1,2 1.954,-3.064 4.787,-4.73 8.5,-5 -4.09,5.595 -8.756,10.761 -14,15.5 -20.726,18.858 -43.059,35.525 -67,50 -92.363,48.22 -186.029,51.053 -281,8.5 -16.127,-8.563 -31.794,-17.897 -47,-28 -27.336,-19.338 -50.336,-43.004 -69,-71 3.3,2.131 6.467,4.464 9.5,7 0.561,-0.522 1.228,-0.855 2,-1 1.651,1.242 3.485,2.076 5.5,2.5 -2.541,1.848 -3.541,4.348 -3,7.5 3.257,-0.168 6.257,-1.168 9,-3 0.333,-0.833 0.667,-1.667 1,-2.5 -0.878,-1.8 -1.545,-3.633 -2,-5.5 -5.847,-0.281 -7.514,-2.781 -5,-7.5 -0.964,-1.964 -2.297,-3.63 -4,-5 -1.015,-1.373 -1.015,-2.54 0,-3.5 z"
                             id="path72" />
                        </g>
                        <g
                           id="g73">
                          <path
                             style="opacity:1"
                             fill="#dee1e3"
                             d="m 512.5,723.5 c 0.935,2.613 1.102,5.279 0.5,8 -4.596,10.219 -11.096,11.553 -19.5,4 -2.042,-5.53 -1.042,-10.363 3,-14.5 5.942,-2.547 11.275,-1.713 16,2.5 z"
                             id="path73" />
                        </g>
                      </g>
                    </g>
                  </g>
                </g>
              </g>
            </g>
          </g>
        </g>
      </g>
    </g>
  </g>
</svg>
